<svg id="visual" viewBox="0 0 900 600" width="900" height="600" xmlns="http://www.w3.org/2000/svg" xmlns:xlink="http://www.w3.org/1999/xlink" version="1.1"><rect width="900" height="600" fill="#000000"></rect><g><g transform="translate(87 49)"><path d="M0 -62.8L54.4 -31.4L54.4 31.4L0 62.8L-54.4 31.4L-54.4 -31.4Z" fill="none" stroke="#3b3b29" stroke-width="5"></path></g><g transform="translate(283 492)"><path d="M0 -24L20.8 -12L20.8 12L0 24L-20.8 12L-20.8 -12Z" fill="none" stroke="#3b3b29" stroke-width="5"></path></g><g transform="translate(408 218)"><path d="M0 -54L46.8 -27L46.8 27L0 54L-46.8 27L-46.8 -27Z" fill="none" stroke="#3b3b29" stroke-width="5"></path></g><g transform="translate(66 286)"><path d="M0 -30L26 -15L26 15L0 30L-26 15L-26 -15Z" stroke="#3b3b29" fill="none" stroke-width="5"></path></g></g></svg>